HIERARCHY
ROOT Hips
{
	OFFSET 0.000000 0.000000 0.000000 
	CHANNELS 6 Xposition Yposition Zposition Yrotation Zrotation Xrotation 
	JOINT Lumbar
	{
		OFFSET 0.000000 0.000000 0.000000 
		CHANNELS 3 Zrotation Xrotation Yrotation
		JOINT Neck
		{
			OFFSET 0.000000 0.445665 0.000000 
			CHANNELS 3 Zrotation Xrotation Yrotation
			End Site
			{
				OFFSET 0.000000 0.227535 0.000000 
			}
		}
		JOINT RightShoulder
		{
			OFFSET 0.019635 0.377685 0.194865 
			CHANNELS 3 Zrotation Xrotation Yrotation
			JOINT RightElbow
			{
				OFFSET 0.000000 -0.243375 0.000000 
				CHANNELS 2 Zrotation Yrotation
				JOINT RightWrist
				{
					OFFSET 0.000000 -0.264825 0.000000 
					CHANNELS 2 Zrotation Xrotation
					End Site
					{
						OFFSET 0.006600 -0.176220 0.000990 
					}
				}
			}
		}
		JOINT LeftShoulder
		{
			OFFSET 0.019635 0.377685 -0.194865 
			CHANNELS 3 Zrotation Xrotation Yrotation
			JOINT LeftElbow
			{
				OFFSET 0.000000 -0.243375 0.000000 
				CHANNELS 2 Zrotation Yrotation
				JOINT LeftWrist
				{
					OFFSET 0.000000 -0.264825 0.000000 
					CHANNELS 2 Zrotation Xrotation
					End Site
					{
						OFFSET 0.006600 -0.176220 -0.000990 
					}
				}
			}
		}
	}
	JOINT RightHip
	{
		OFFSET 0.052140 -0.069960 0.075570 
		CHANNELS 3 Zrotation Xrotation Yrotation
		JOINT RightKnee
		{
			OFFSET 0.000000 -0.402270 0.000000 
			CHANNELS 1 Zrotation
			JOINT RightAnkle
			{
				OFFSET 0.000000 -0.404085 0.000000 
				CHANNELS 3 Zrotation Xrotation Yrotation
				End Site
				{
					OFFSET 0.204105 -0.089430 0.008415 
				}
			}
		}
	}
	JOINT LeftHip
	{
		OFFSET 0.052140 -0.069960 -0.075570 
		CHANNELS 3 Zrotation Xrotation Yrotation
		JOINT LeftKnee
		{
			OFFSET 0.000000 -0.402270 0.000000 
			CHANNELS 1 Zrotation
			JOINT LeftAnkle
			{
				OFFSET 0.000000 -0.404085 0.000000 
				CHANNELS 3 Zrotation Xrotation Yrotation
				End Site
				{
					OFFSET 0.204105 -0.089430 -0.008415 
				}
			}
		}
	}
}
MOTION
Frames: 17
Frame Time: 0.02
0.35225 0.94589 0.56602 122.05138 0 -1.35484 2.45521 0.86719 -1.63967 -15.89897 -7.07559 -4.71973 166.38694 -167.64471 55.63416 5.78688 122.34411 82.84968 16.27047 166.38694 134.60377 -55.63414 5.78689 -124.86907 82.84966 21.88634 17.56005 -4.73683 -2.60434 -19.98078 -3.87216 -0.23826 7.08847 -7.54675 -3.72004 1.40023 -7.02716 10.51158 5.32433 6.38326
0.35158 0.94606 0.56639 122.44322 0 -1.3886 2.63821 0.88143 -1.33701 -16.57966 -6.752 -4.26227 166.38694 -164.16796 55.63421 5.78687 120.27844 82.8497 16.27462 166.38694 134.24427 -55.63415 5.78689 -125.53895 82.84968 21.88647 17.44812 -4.8577 -3.22321 -19.92556 -3.96195 -0.27134 6.94018 -7.49889 -3.67775 1.24374 -7.08129 10.4694 5.29366 6.22885
0.3508 0.94618 0.5666 122.79954 0 -1.43801 2.86959 0.9086 -0.95159 -17.37497 -6.42345 -3.734 166.38694 -159.8619 55.63418 5.78688 117.82025 82.84969 16.26882 166.38694 133.73116 -55.63415 5.78689 -126.27027 82.84964 21.8863 17.31124 -4.93995 -3.65152 -19.83595 -4.01811 -0.29821 6.7795 -7.44468 -3.63183 1.12127 -7.17427 10.43345 5.34059 6.10647
0.35007 0.94632 0.56688 123.16889 0 -1.48133 3.07972 0.93205 -0.59835 -18.11299 -6.10671 -3.23725 166.38694 -155.95435 55.63419 5.78688 115.53104 82.84969 16.27044 166.38694 133.25857 -55.63415 5.78689 -126.98173 82.84971 21.88654 17.18592 -5.03899 -4.16473 -19.76196 -4.09078 -0.32728 6.63079 -7.39458 -3.58739 0.98175 -7.24803 10.3969 5.34971 5.9742
0.34935 0.94646 0.56716 123.55375 0 -1.52074 3.28703 0.94685 -0.268 -18.87599 -5.74841 -2.74139 166.38694 -151.9472 55.63419 5.78688 113.2406 82.84969 16.28656 166.38694 132.90915 -55.63416 5.78689 -127.66417 82.84968 21.88651 17.0592 -5.14161 -4.68793 -19.68897 -4.15802 -0.35899 6.45603 -7.33921 -3.54286 0.84668 -7.32882 10.35179 5.36856 5.82269
0.34857 0.9466 0.5674 123.89732 0 -1.57176 3.51156 0.98224 0.12951 -19.6127 -5.47579 -2.22819 166.38694 -147.9542 55.63419 5.78688 110.90685 82.84969 16.23662 166.38694 132.26662 -55.63416 5.78689 -128.41705 82.8495 21.88587 16.93021 -5.22765 -5.14824 -19.60616 -4.22928 -0.38395 6.33109 -7.29308 -3.49796 0.71189 -7.40433 10.32525 5.38573 5.7178
0.34761 0.94677 0.56758 124.1313 0 -1.65214 3.77249 1.07516 0.69399 -20.25256 -5.44287 -1.67727 166.38694 -144.19942 55.63419 5.78688 108.13796 82.84969 16.31454 166.38694 130.85677 -55.63416 5.78689 -129.37713 82.85009 21.88776 16.79385 -5.27506 -5.42952 -19.49423 -4.31217 -0.38896 6.36163 -7.27732 -3.45296 0.56208 -7.45199 10.35374 5.38204 5.74483
0.34659 0.94696 0.56772 124.32545 0 -1.74338 4.04895 1.18754 1.32269 -20.86083 -5.49599 -1.11301 166.38694 -140.49073 55.63419 5.78688 105.40165 82.84969 16.28383 166.38694 129.15767 -55.63416 5.78689 -130.39697 82.84914 21.88474 16.65724 -5.30751 -5.66302 -19.37504 -4.40139 -0.38789 6.43988 -7.27058 -3.40787 0.41291 -7.49352 10.39976 5.37357 5.81562
0.34561 0.94714 0.56789 124.54008 0 -1.82894 4.31782 1.28857 1.92108 -21.48076 -5.50893 -0.55958 166.38694 -136.76272 55.63419 5.78688 102.93988 82.8497 16.08195 166.38694 127.58672 -55.63415 5.78689 -131.37545 82.84956 21.8857 16.52563 -5.34812 -5.95099 -19.26598 -4.49301 -0.39144 6.48686 -7.25754 -3.36286 0.26866 -7.54035 10.43415 5.36579 5.85931
0.34459 0.94731 0.56801 124.74303 0 -1.91838 4.59059 1.40098 2.52788 -22.1164 -5.52704 0.01702 166.38694 -132.99295 55.63419 5.78688 99.30385 82.84969 16.74925 166.38694 126.01962 -55.63415 5.78689 -132.4306 82.85189 21.89373 16.37312 -5.38137 -6.09287 -19.12781 -4.5622 -0.38693 6.57459 -7.25333 -3.31737 0.10391 -7.57827 10.48386 5.36732 5.93489
0.34363 0.9475 0.56823 124.96185 0 -2.00186 4.85836 1.4937 3.13038 -22.70995 -5.55387 0.54693 166.38694 -129.33922 55.63419 5.78688 98.04988 82.84966 15.65772 166.38694 124.38371 -55.63415 5.78689 -133.32123 82.84391 21.86772 16.26365 -5.42724 -6.53178 -19.04788 -4.6788 -0.39786 6.58802 -7.23323 -3.27313 -0.01885 -7.63235 10.50622 5.34685 5.95363
0.34283 0.94777 0.56873 125.22947 0 -2.06833 5.10771 1.53113 3.71309 -23.19757 -5.59266 0.95005 166.38694 -125.93866 55.63419 5.78688 104.04532 82.84976 9.05501 166.38694 122.57936 -55.63416 5.78688 -133.90319 82.85724 21.90939 16.27993 -5.50891 -7.78803 -19.14018 -4.93538 -0.45275 6.39239 -7.16495 -3.23067 -0.02214 -7.7359 10.44448 5.27053 5.80789
0.34208 0.94806 0.56934 125.51536 0 -2.12786 5.3514 1.54728 4.2874 -23.64281 -5.63578 1.30444 166.38694 -122.66928 55.63419 5.78688 112.32536 82.8496 0.80028 166.38694 120.72612 -55.63417 5.78688 -134.29083 82.84993 21.8907 16.33847 -5.60448 -9.34745 -19.28979 -5.23743 -0.52343 6.11881 -7.08088 -3.18992 0.01598 -7.85495 10.3553 5.17117 5.60274
0.34131 0.94833 0.5699 125.79631 0 -2.1892 5.59797 1.57063 4.86003 -24.10521 -5.67089 1.67711 166.38694 -119.37905 55.63419 5.78688 119.09873 82.84969 -6.23504 166.38694 118.9278 -55.63418 5.78688 -134.65756 82.8211 21.7897 16.37319 -5.69563 -10.77988 -19.40688 -5.51216 -0.58701 5.87606 -7.00532 -3.14938 0.03256 -7.96471 10.28157 5.07947 5.42248
0.34056 0.94863 0.57045 126.06214 0 -2.25695 5.84385 1.60517 5.45814 -24.5756 -5.73385 2.06624 166.38694 -115.9207 55.63419 5.78688 127.79565 82.85003 -15.19957 166.38694 116.97954 -55.63419 5.78688 -135.473 82.92721 22.13665 16.42701 -5.77823 -12.16933 -19.55065 -5.81611 -0.65008 5.65498 -6.92404 -3.10421 0.06064 -8.0844 10.1962 4.99943 5.25243
0.33976 0.94887 0.57105 126.36372 0 -2.30913 6.08957 1.61102 6.00034 -25.01953 -5.73952 2.40981 166.38694 -112.85013 55.63419 5.78688 133.09718 82.84875 -20.60335 166.38694 115.3379 -55.63419 5.78688 -135.32512 82.74165 21.55539 16.45153 -5.88217 -13.7155 -19.65307 -6.06876 -0.71802 5.36888 -6.8513 -3.06964 0.07465 -8.18639 10.12793 4.88982 5.04673
0.33879 0.94893 0.57175 126.76515 0 -2.3237 6.33635 1.54347 6.38935 -25.4018 -5.57858 2.63465 166.38694 -110.76111 55.63416 5.78688 127.86295 82.85093 -15.18829 166.38694 114.53907 -55.63419 5.78688 -132.40758 81.80531 18.26123 16.38085 -6.0416 -15.66714 -19.62316 -6.17869 -0.79565 4.92907 -6.80182 -3.05909 0.03878 -8.24246 10.11717 4.70295 4.75437
